<svg class="img-fluid" id="outputsvg" xmlns="http://www.w3.org/2000/svg" style="transform: none; transform-origin: 50% 50% 0px; cursor: move; transition: none;" width="96" height="96" viewBox="0 0 960 960">
  <g id="l7fG7mUenIvl9LGEpS3a0xq" fill="rgb(24,128,56)" style="transform: none;">
    <g>
      <path id="p3rpm2ICy" d="M426 328 c-9 -12 -16 -28 -16 -35 0 -6 -6 -18 -13 -25 -7 -7 -19 -28 -26 -45 -7 -18 -16 -33 -20 -33 -4 0 -13 -16 -20 -36 -9 -26 -10 -39 -2 -47 6 -6 11 -7 11 -2 0 6 5 3 10 -5 7 -12 33 -15 127 -15 108 0 121 2 142 22 l24 22 -64 111 c-57 99 -89 134 -89 96 0 -8 -6 -16 -14 -19 -8 -3 -13 1 -12 10 2 25 -21 26 -38 1z"/>
    </g>
  </g>
  <g id="lEUVRvklyVEHy5GJ9hDog8" fill="rgb(52,168,83)" style="transform: none;">
    <g>
      <path id="p19GBCQTSr" d="M50 613 c0 -25 55 -127 227 -420 55 -95 76 -108 89 -57 3 13 10 24 14 24 4 0 14 15 21 33 7 17 19 38 26 45 7 7 13 20 13 28 0 8 4 14 8 14 5 0 9 6 9 13 0 6 3 19 7 27 4 9 -26 71 -74 154 -44 77 -80 144 -80 150 0 6 5 4 10 -4 8 -13 10 -12 10 3 0 15 -13 17 -140 17 l-140 0 0 -27z"/>
    </g>
  </g>
  <g id="l356sp2jrU1vkARbFr7r3B8" fill="rgb(25,103,210)" style="transform: none;">
    <g>
      <path id="pZuAz9Rae" d="M188 844 c-26 -13 -138 -194 -138 -222 0 -17 256 -17 263 1 4 9 6 9 6 0 1 -7 6 -13 11 -13 21 0 8 40 -36 116 -87 147 -75 134 -106 118z"/>
    </g>
  </g>
  <g id="l57sWSXvFfrqnJAuvyrFIkE" fill="rgb(234,67,53)" style="transform: none;">
    <g>
      <path id="pwLfRFYa7" d="M676 754 c-52 -88 -70 -144 -46 -144 6 0 10 5 10 12 0 6 3 9 6 6 3 -4 1 -16 -6 -27 -11 -21 -10 -21 130 -21 l140 0 0 28 c-1 38 -112 227 -133 226 -9 -1 -14 2 -11 7 3 5 -4 9 -14 9 -15 0 -35 -26 -76 -96z"/>
    </g>
  </g>
  <g id="l1O5Off4qqBRhs7PRvmm8b7" fill="rgb(66,133,244)" style="transform: none;">
    <g>
      <path id="pMN3ioCsh" d="M200 850 c-20 -12 -19 -31 3 -53 10 -10 15 -22 12 -27 -4 -6 -1 -10 5 -10 6 0 9 -4 6 -9 -3 -5 1 -12 10 -15 8 -3 12 -10 9 -16 -3 -5 -1 -10 5 -10 6 0 8 -4 5 -10 -3 -5 -1 -10 5 -10 6 0 9 -4 6 -9 -3 -5 1 -12 10 -15 8 -3 13 -10 9 -15 -3 -5 4 -12 15 -16 11 -3 20 -11 20 -16 0 -5 67 -9 158 -9 l157 0 21 33 c35 53 110 181 113 192 1 5 -6 12 -16 16 -27 11 -536 10 -553 -1z"/>
      <path id="poozrPgNg" d="M636 595 c-3 -10 1 -15 13 -15 10 0 21 7 25 15 3 10 -1 15 -13 15 -10 0 -21 -7 -25 -15z"/>
    </g>
  </g>
  <g id="l23b3iVv7uNMAO9ZmeP1ClI" fill="rgb(251,188,4)" style="transform: none;">
    <g>
      <path id="ppn29DJdM" d="M570 478 c-41 -72 -76 -139 -78 -148 -4 -21 109 -219 125 -220 6 0 20 12 31 28 35 50 262 449 262 461 0 8 -40 11 -132 11 l-133 0 -75 -132z"/>
    </g>
  </g>
</svg>
