<svg class="img-fluid" id="outputsvg" xmlns="http://www.w3.org/2000/svg" style="transform: none; transform-origin: 50% 50% 0px; cursor: move; transition: none;" width="1015" height="1015" viewBox="0 0 10150 10150">
  <g id="l6zRL6BpwPzEDwRnhZkucHK" fill="rgb(7,45,80)" style="transform: none;">
    <g style="transform: none;">
      <path id="pGl2YQOkF" d="M5562 9763 l-2 -393 1133 0 c624 0 1465 -3 1870 -7 l737 -6 0 -936 c0 -515 -5 -1379 -11 -1920 -8 -700 -8 -986 0 -994 7 -7 152 -12 436 -15 l425 -5 0 2332 0 2331 -2285 0 -2285 0 -2 -382 -3 -383 -5 385 -5 385 -3 -392z m3755 -1980 c-1 -290 -2 -55 -2 522 0 578 1 815 2 528 2 -287 2 -759 0 -1050z m-10 -1450 c-1 -76 -3 -14 -3 137 0 151 2 213 3 138 2 -76 2 -200 0 -275z m-10 -590 c-2 -32 -3 -8 -3 52 0 61 1 87 3 58 2 -29 2 -78 0 -110z"/>
      <path id="pozqpYOly" d="M3541 5891 c2 -225 7 -412 10 -415 3 -3 246 -1 540 4 637 12 2241 15 2388 5 l103 -8 -5 403 c-3 221 -8 405 -12 408 -4 4 -686 8 -1517 10 l-1510 3 3 -410z m16 17 c-1 -68 -3 -15 -3 117 0 132 2 187 3 123 2 -64 2 -172 0 -240z m1301 -405 c-64 -2 -172 -2 -240 0 -68 1 -15 3 117 3 132 0 187 -2 123 -3z m1520 0 c-32 -2 -84 -2 -115 0 -32 2 -6 3 57 3 63 0 89 -1 58 -3z m-2270 -10 c-43 -2 -113 -2 -155 0 -43 1 -8 3 77 3 85 0 120 -2 78 -3z m-460 -10 c-10 -2 -26 -2 -35 0 -10 3 -2 5 17 5 19 0 27 -2 18 -5z"/>
      <path id="p10101wBp7" d="M3535 4596 c-9 -130 -2 -726 8 -743 6 -10 300 -13 1370 -13 749 0 1430 -3 1514 -7 l152 -6 -5 129 c-2 71 -7 262 -10 425 l-6 296 -62 7 c-33 3 -712 9 -1507 13 l-1447 6 -7 -107z m2737 77 c-40 -2 -103 -2 -140 0 -37 2 -4 3 73 3 77 0 107 -2 67 -3z m-2725 -470 c-1 -43 -3 -8 -3 77 0 85 2 120 3 78 2 -43 2 -113 0 -155z m10 -330 c-3 -10 -5 -2 -5 17 0 19 2 27 5 18 2 -10 2 -26 0 -35z m2131 -20 c-208 -2 -548 -2 -755 0 -208 1 -38 2 377 2 415 0 585 -1 378 -2z"/>
      <path id="p1GD6ZxpOK" d="M0 2347 l0 -2347 2275 0 c1813 0 2275 3 2275 13 0 8 3 8 9 -2 15 -24 21 92 24 446 l2 333 -40 5 c-22 3 -862 5 -1867 3 l-1827 -3 -7 75 c-6 69 -4 587 12 2785 3 429 2 832 -3 895 l-8 115 -65 7 c-36 3 -226 9 -422 14 l-358 7 0 -2346z m258 2326 c-27 -2 -69 -2 -95 0 -27 2 -5 3 47 3 52 0 74 -1 48 -3z m365 -10 c-23 -2 -64 -2 -90 0 -26 2 -7 3 42 3 50 0 71 -1 48 -3z m215 -45 l-1 -43 -4 37 c-4 33 -8 37 -36 41 -31 4 -31 4 6 5 l37 2 -2 -42z m-1 -1840 c-1 -51 -3 -12 -3 87 0 99 2 141 3 93 2 -48 2 -129 0 -180z m-10 -1530 c-1 -183 -2 -36 -2 327 0 363 1 513 2 333 2 -179 2 -476 0 -660z m2471 -465 c-362 -2 -954 -2 -1315 0 -362 1 -66 2 657 2 723 0 1019 -1 658 -2z m1269 -515 c-1 -51 -3 -12 -3 87 0 99 2 141 3 93 2 -48 2 -129 0 -180z"/>
    </g>
  </g>
  <g id="loEYzJ0hu8Udja0I384azZ" fill="rgb(103,224,255)" style="transform: none;">
    <g style="transform: none;">
      <path id="pQc860ply" d="M0 7825 l0 -2325 398 -2 397 -3 -400 -5 -400 -5 428 -3 c400 -2 427 -1 429 16 1 9 2 883 3 1942 l0 1925 1850 5 c1018 3 1851 7 1853 8 1 1 1 176 0 390 l-3 387 -5 -385 -5 -385 -3 383 -2 382 -2270 0 -2270 0 0 -2325z m837 872 c-1 -111 -2 -17 -2 208 0 226 1 316 2 202 2 -115 2 -299 0 -410z m0 -1349 c-1 -194 -2 -38 -2 347 0 385 1 544 2 353 2 -190 2 -505 0 -700z"/>
      <path id="pvkVvi0xg" d="M2095 5317 c-4 -1695 -7 -3163 -8 -3262 -1 -182 6 -260 23 -250 6 3 7 -1 3 -11 -5 -14 0 -16 38 -11 24 3 231 11 459 18 228 6 417 13 419 15 2 2 -1 282 -7 621 -26 1369 -35 3027 -24 4508 7 791 10 1440 9 1441 -1 0 -205 4 -454 7 l-452 6 -6 -3082z m902 2896 c-2 -32 -3 -6 -3 57 0 63 1 89 3 58 2 -32 2 -84 0 -115z m-10 -860 c-1 -82 -3 -15 -3 147 0 162 2 229 3 148 2 -82 2 -214 0 -295z m0 -3686 c-1 -67 -3 -9 -3 128 0 138 2 192 3 122 2 -71 2 -183 0 -250z m10 -704 c-1 -54 -3 -10 -3 97 0 107 2 151 3 98 2 -54 2 -142 0 -195z m10 -530 c-1 -43 -3 -8 -3 77 0 85 2 120 3 78 2 -43 2 -113 0 -155z m10 -535 c-1 -46 -3 -11 -3 77 0 88 2 125 3 83 2 -42 2 -114 0 -160z m-559 -85 c-21 -2 -57 -2 -80 0 -24 2 -7 4 37 4 44 0 63 -2 43 -4z m-195 -10 c-13 -2 -33 -2 -45 0 -13 2 -3 4 22 4 25 0 35 -2 23 -4z"/>
      <path id="prZ70Fyli" d="M5597 8325 c-4 -43 -7 -225 -7 -404 l0 -326 562 3 c594 3 894 13 942 32 17 6 33 7 38 2 33 -33 35 -277 28 -3594 -2 -1225 -2 -2230 1 -2233 4 -3 206 -3 450 1 l444 7 0 3289 0 3288 -860 0 c-473 0 -1025 3 -1226 7 l-366 6 -6 -78z m1321 -702 c-10 -2 -26 -2 -35 0 -10 3 -2 5 17 5 19 0 27 -2 18 -5z m-551 -10 c-98 -2 -256 -2 -350 0 -95 1 -14 3 178 2 193 0 270 -1 172 -2z m896 -5800 c-13 -2 -35 -2 -50 0 -16 2 -5 4 22 4 28 0 40 -2 28 -4z"/>
      <path id="p14K6eRXuA" d="M9285 4324 c-4 -203 -5 -1079 -2 -1948 l7 -1579 -1794 8 c-986 4 -1816 4 -1845 0 l-51 -7 0 -376 c0 -208 3 -387 6 -400 l6 -22 2268 0 2269 0 -1 2340 -1 2340 -121 0 c-67 0 -259 3 -427 7 l-307 6 -7 -369z m22 309 c-3 -10 -5 -2 -5 17 0 19 2 27 5 18 2 -10 2 -26 0 -35z m216 40 c-23 -2 -64 -2 -90 0 -26 2 -7 3 42 3 50 0 71 -1 48 -3z m520 -10 c-40 -2 -107 -2 -150 0 -43 1 -10 3 72 3 83 0 118 -2 78 -3z m-736 -3705 c-1 -51 -3 -10 -3 92 0 102 2 143 3 93 2 -51 2 -135 0 -185z m-374 -175 c-199 -2 -527 -2 -730 0 -202 1 -39 2 362 2 402 0 567 -1 368 -2z"/>
    </g>
  </g>
</svg>
